<?xml version="1.0" encoding="UTF-8" standalone="no"?>
<!DOCTYPE svg PUBLIC "-//W3C//DTD SVG 1.1//EN" "http://www.w3.org/Graphics/SVG/1.1/DTD/svg11.dtd">
<svg width="100%" height="100%" viewBox="0 0 500 167" version="1.1" xmlns="http://www.w3.org/2000/svg" xmlns:xlink="http://www.w3.org/1999/xlink" xml:space="preserve" xmlns:serif="http://www.serif.com/" style="fill-rule:evenodd;clip-rule:evenodd;stroke-linejoin:round;stroke-miterlimit:2;">
    <g transform="matrix(5.55556,0,0,5.55556,0,0)">
        <g transform="matrix(0.296929,0,0,0.333333,-49.7893,-88.7814)">
            <g transform="matrix(1.83727e-17,-0.300049,0.304502,1.86454e-17,149.961,406.936)">
                <g transform="matrix(9.15833,0,-1.12885e-31,9.15833,161.46,60.3522)">
                    <clipPath id="_clip1">
                        <rect x="0.565" y="-0.001" width="16.536" height="32"/>
                    </clipPath>
                    <g clip-path="url(#_clip1)">
                        <path d="M29.181,19.07C27.502,16.162 28.512,12.436 31.436,10.742L28.291,5.295C27.393,5.822 26.348,6.124 25.233,6.124C21.872,6.124 19.148,3.382 19.148,-0.001L12.859,-0.001C12.867,1.043 12.607,2.102 12.048,3.069C10.369,5.977 6.637,6.966 3.709,5.28L0.565,10.727C1.47,11.242 2.254,11.995 2.811,12.961C4.487,15.864 3.483,19.584 0.57,21.28L3.715,26.727C4.61,26.205 5.65,25.907 6.759,25.907C10.109,25.907 12.826,28.632 12.843,31.999L19.132,31.999C19.129,30.965 19.391,29.919 19.943,28.961C21.619,26.058 25.342,25.067 28.268,26.742L31.413,21.295C30.514,20.78 29.735,20.029 29.181,19.069L29.181,19.07ZM16,22.479C12.422,22.479 9.521,19.578 9.521,16C9.521,12.422 12.422,9.521 16,9.521C19.578,9.521 22.479,12.422 22.479,16C22.479,19.578 19.578,22.479 16,22.479Z" style="fill:rgb(50,112,185);fill-rule:nonzero;"/>
                    </g>
                </g>
                <g transform="matrix(0.179267,0,-3.08149e-33,0.179267,126.304,35.0292)">
                    <clipPath id="_clip2">
                        <rect x="959.102" y="136.015" width="823.207" height="1646.23"/>
                    </clipPath>
                    <g clip-path="url(#_clip2)">
                        <path d="M919.5,136.5C1146.37,129.384 1344.37,200.55 1513.5,350C1657.75,483.643 1744.92,648.143 1775,843.5C1804.54,1082.71 1744.54,1296.05 1595,1483.5C1458.62,1644.81 1285.45,1741.98 1075.5,1775C821.65,1805.92 598.983,1737.92 407.5,1571C241.747,1416.97 151.58,1226.47 137,999.5C129.168,773.948 199.168,576.948 347,408.5C486.996,256.911 659.829,167.744 865.5,141C883.664,139.617 901.664,138.117 919.5,136.5Z" style="fill:rgb(50,112,185);"/>
                        <path d="M879.5,365.5C932.959,364.698 982.293,378.531 1027.5,407C1060.73,427.549 1090.4,452.549 1116.5,482C1163.75,481.199 1210.75,484.199 1257.5,491C1295.3,497.736 1330.97,510.403 1364.5,529C1425.99,567.4 1461.15,622.9 1470,695.5C1475.25,751.11 1468.75,805.276 1450.5,858C1480.24,903.317 1503.74,951.817 1521,1003.5C1558.96,1142.71 1513.13,1243.21 1383.5,1305C1354.08,1317.78 1323.74,1327.94 1292.5,1335.5C1270.22,1378.42 1243.72,1418.42 1213,1455.5C1188.19,1483.96 1159.69,1507.79 1127.5,1527C1070.06,1557.26 1010.73,1561.6 949.5,1540C891.856,1517.18 842.523,1482.51 801.5,1436C743.429,1439.2 686.096,1434.2 629.5,1421C509.474,1387.49 448.807,1308.33 447.5,1183.5C447.795,1142.47 454.295,1102.47 467,1063.5C467.667,1061.83 467.667,1060.17 467,1058.5C435.217,1010.59 411.217,958.926 395,903.5C363.671,780.039 403.171,687.206 513.5,625C549.424,606.304 587.09,592.471 626.5,583.5C653.128,530.232 687.128,482.232 728.5,439.5C757.16,411.002 790.493,389.835 828.5,376C845.253,370.617 862.253,367.117 879.5,365.5Z" style="fill:rgb(253,254,253);"/>
                        <path d="M659.5,915.5L659.5,614.5C681.482,567.043 709.648,523.71 744,484.5C827.478,393.928 919.978,383.761 1021.5,454C1039.29,466.914 1055.95,481.247 1071.5,497C983.675,548.171 895.508,599.004 807,649.5C801.361,765.83 795.861,882.163 790.5,998.5C746.974,970.573 703.307,942.906 659.5,915.5Z" style="fill:rgb(50,112,185);"/>
                        <path d="M1119.5,525.5C1172.82,522.956 1225.49,527.456 1277.5,539C1388.47,570.689 1438.64,644.189 1428,759.5C1426.16,781.87 1422.33,803.87 1416.5,825.5C1327.97,774.648 1239.47,723.648 1151,672.5C1060.38,719.482 969.875,766.648 879.5,814C866.892,820.472 854.225,826.638 841.5,832.5C843.362,780.823 845.528,729.156 848,677.5C934.816,627.18 1021.65,577.013 1108.5,527C1112.36,526.823 1116.02,526.323 1119.5,525.5Z" style="fill:rgb(50,112,185);"/>
                        <path d="M659.5,614.5L659.5,915.5C658.751,914.469 658.085,913.302 657.5,912C658.166,812.736 658.832,713.569 659.5,614.5Z" style="fill:rgb(50,112,185);"/>
                        <path d="M611.5,631.5L615.5,631.5C615.167,733.836 615.5,836.169 616.5,938.5C714.167,1000.67 811.833,1062.83 909.5,1125C863.369,1148.57 817.369,1172.4 771.5,1196.5C684.276,1147.22 597.276,1097.38 510.5,1047C478.146,1000.45 453.646,949.954 437,895.5C409.521,800.756 436.355,726.256 517.5,672C547.148,654.336 578.481,640.836 611.5,631.5Z" style="fill:rgb(50,112,185);"/>
                        <path d="M1145.5,722.5C1149.11,722.799 1152.44,723.965 1155.5,726C1239.61,774.892 1323.94,823.558 1408.5,872C1440.08,917.004 1464.24,965.838 1481,1018.5C1490.22,1048.83 1493.56,1079.83 1491,1111.5C1484.83,1161.36 1462,1201.53 1422.5,1232C1386.71,1258.56 1347.05,1277.06 1303.5,1287.5C1303.83,1185.16 1303.5,1082.83 1302.5,980.5C1205.17,918.5 1107.83,856.5 1010.5,794.5C1012.96,792.433 1015.62,790.599 1018.5,789C1061.21,767.314 1103.54,745.147 1145.5,722.5Z" style="fill:rgb(50,112,185);"/>
                        <path d="M963.5,817.5C964.873,817.343 966.207,817.51 967.5,818C1006.37,843.031 1045.37,867.864 1084.5,892.5C1084.83,897 1085.17,901.5 1085.5,906C1083.38,949.153 1081.54,992.32 1080,1035.5C1038.13,1057.85 995.96,1079.85 953.5,1101.5C913.736,1076.78 874.069,1051.78 834.5,1026.5C833.77,1006.84 833.937,987.174 835,967.5C836.306,939.154 837.806,910.82 839.5,882.5C881.179,861.329 922.512,839.662 963.5,817.5Z" style="fill:rgb(50,112,185);"/>
                        <path d="M1259.5,1003.5C1259.83,1105.21 1259.5,1206.87 1258.5,1308.5C1235.24,1354.68 1206.74,1397.35 1173,1436.5C1150.83,1461.02 1125,1480.52 1095.5,1495C1054.46,1512.93 1012.46,1515.26 969.5,1502C922.493,1484.84 881.826,1458.17 847.5,1422C935.39,1370.8 1023.56,1319.97 1112,1269.5C1117.94,1155.54 1122.94,1041.54 1127,927.5C1127.19,925.1 1127.69,922.766 1128.5,920.5C1171.99,948.415 1215.66,976.081 1259.5,1003.5Z" style="fill:rgb(50,112,185);"/>
                        <path d="M1259.5,1003.5C1260.25,1004.53 1260.92,1005.7 1261.5,1007C1260.67,1107.76 1260.17,1208.6 1260,1309.5C1259.62,1308.94 1259.12,1308.61 1258.5,1308.5C1259.5,1206.87 1259.83,1105.21 1259.5,1003.5Z" style="fill:rgb(50,112,185);"/>
                        <path d="M1074.5,1086.5L1077.5,1086.5C1075.79,1138.42 1073.45,1190.25 1070.5,1242C983.853,1291.97 897.187,1341.97 810.5,1392C766.694,1394.99 723.027,1393.66 679.5,1388C531.744,1362.84 470.244,1276 495,1127.5C496.715,1116.31 499.215,1105.31 502.5,1094.5C503,1094.17 503.5,1093.83 504,1093.5C591.827,1144.75 679.827,1195.75 768,1246.5C870.732,1193.72 972.898,1140.39 1074.5,1086.5Z" style="fill:rgb(50,112,185);"/>
                    </g>
                </g>
            </g>
            <g transform="matrix(1,0,0,1,-25.1888,3.61852)">
                <clipPath id="_clip3">
                    <rect x="291.91" y="286.636" width="204.434" height="53.694"/>
                </clipPath>
                <g clip-path="url(#_clip3)">
                    <text x="288.078px" y="339.054px" style="font-family:'ArialRoundedMTBold', 'Arial Rounded MT Bold', sans-serif;font-size:72px;fill:rgb(50,112,185);">SUMZ</text>
                </g>
            </g>
        </g>
    </g>
</svg>
